<?xml version="1.0" encoding="utf-8"?>
<!-- Generator: Adobe Illustrator 18.0.0, SVG Export Plug-In . SVG Version: 6.00 Build 0)  -->
<!DOCTYPE svg PUBLIC "-//W3C//DTD SVG 1.1//EN" "http://www.w3.org/Graphics/SVG/1.1/DTD/svg11.dtd">
<svg version="1.1" id="Layer_1" xmlns="http://www.w3.org/2000/svg" xmlns:xlink="http://www.w3.org/1999/xlink" x="0px" y="0px"
	 viewBox="0 0 1600 419" enable-background="new 0 0 1600 419" xml:space="preserve">
<g>
	<g>
		<g>
			<path fill-rule="evenodd" clip-rule="evenodd" fill="#FFFFFF" d="M294.2,226.8l0.3,0.1c-25.1-15.7-41.9-43.5-42.3-75.1
				c0,0.2,0,0.5,0,0.7c0-0.6,0-1.3,0-2c0-25.6-20.7-46.3-46.3-46.3c-25.6,0-46.3,20.7-46.3,46.3c0,18.8,11.2,34.9,27.2,42.2
				c-0.4-0.2-0.9-0.4-1.3-0.6c25.1,15.7,41.9,43.5,42.3,75.1c0-0.2,0-0.5,0-0.7c0,0.6,0,1.3,0,2c0,25.6,20.7,46.3,46.3,46.3
				s46.3-20.7,46.3-46.3C320.4,250.1,309.7,234.2,294.2,226.8z"/>
			<circle fill-rule="evenodd" clip-rule="evenodd" fill="#FFFFFF" cx="150.6" cy="267.2" r="46.3"/>
			<path fill-rule="evenodd" clip-rule="evenodd" fill="#FFFFFF" d="M417.7,226.8l0.3,0.1c-25.1-15.7-41.9-43.5-42.3-75.1
				c0,0.2,0,0.5,0,0.7c0-0.6,0-1.3,0-2c0-25.6-20.7-46.3-46.3-46.3c-25.6,0-46.3,20.7-46.3,46.3c0,18.4,10.7,34.3,26.3,41.7
				c0.3,0.2,0.6,0.3,1,0.4c-0.4-0.2-0.9-0.4-1.3-0.6c25.1,15.7,41.9,43.5,42.3,75.1c0-0.2,0-0.5,0-0.7c0,0.6,0,1.3,0,2
				c0,25.6,20.7,46.3,46.3,46.3c25.6,0,46.3-20.7,46.3-46.3C443.9,250.1,433.2,234.2,417.7,226.8z"/>
		</g>
	</g>
	<g>
		<path fill="#FFFFFF" d="M489.3,135.7h43.1l32.6,95.8h0.4l30.8-95.8h43.1V275h-28.7v-98.7h-0.4L576.1,275h-23.6l-34.1-97.7H518V275
			h-28.7V135.7z"/>
		<path fill="#FFFFFF" d="M654.3,205.1c1.6-25.9,24.8-33.7,47.4-33.7c20.1,0,44.3,4.5,44.3,28.7v52.5c0,9.2,1,18.3,3.5,22.4h-28.1
			c-1-3.1-1.8-6.4-2-9.8c-8.8,9.2-21.6,12.5-33.9,12.5c-19.1,0-34.3-9.6-34.3-30.2c0-22.8,17.2-28.3,34.3-30.6
			c17-2.5,32.8-2,32.8-13.3c0-11.9-8.2-13.7-17.9-13.7c-10.5,0-17.4,4.3-18.3,15.2H654.3z M718.3,225.6c-4.7,4.1-14.4,4.3-23,5.8
			c-8.6,1.8-16.4,4.7-16.4,14.8c0,10.3,8,12.9,17,12.9c21.6,0,22.4-17.2,22.4-23.2V225.6z"/>
		<path fill="#FFFFFF" d="M781.1,242.2c0.2,12.1,10.3,17,21.3,17c8,0,18.1-3.1,18.1-12.9c0-8.4-11.5-11.3-31.4-15.6
			c-16-3.5-32-9.2-32-26.9c0-25.7,22.2-32.4,43.9-32.4c22,0,42.3,7.4,44.5,32.2h-26.3c-0.8-10.7-9-13.7-18.9-13.7
			c-6.2,0-15.4,1.2-15.4,9.4c0,9.9,15.6,11.3,31.4,15c16.2,3.7,32,9.6,32,28.3c0,26.5-23,35.1-46,35.1c-23.4,0-46.2-8.8-47.4-35.5
			H781.1z"/>
		<path fill="#FFFFFF" d="M895.6,174.1h20.3v18.5h-20.3v49.9c0,9.4,2.3,11.7,11.7,11.7c2.9,0,5.7-0.2,8.6-0.8v21.7
			c-4.7,0.8-10.7,1-16.2,1c-17,0-31.8-3.9-31.8-24v-59.5h-16.8v-18.5h16.8v-30.2h27.7V174.1z"/>
		<path fill="#FFFFFF" d="M948,231.3c0.8,17.6,9.4,25.5,24.8,25.5c11.1,0,20.1-6.8,21.8-13.1h24.4c-7.8,23.8-24.4,33.9-47.2,33.9
			c-31.8,0-51.5-21.8-51.5-53c0-30.2,20.9-53.2,51.5-53.2c34.3,0,50.9,28.9,49,59.9H948z M993.1,213.7c-2.5-14-8.6-21.5-22-21.5
			c-17.6,0-22.6,13.7-23,21.5H993.1z"/>
		<path fill="#FFFFFF" d="M1029.3,174.1h26.3v18.7h0.4c5.1-12.7,18.7-21.5,32.2-21.5c2,0,4.3,0.4,6,1v25.7c-2.5-0.6-6.6-1-9.9-1
			c-20.3,0-27.3,14.6-27.3,32.4V275h-27.7V174.1z"/>
		<path fill="#FFFFFF" d="M1120.4,192.6h-16.6v-18.5h16.6v-7.8c0-17.7,11.1-30.6,33.7-30.6c4.9,0,9.9,0.6,14.6,0.8v20.7
			c-3.3-0.4-6.6-0.6-10.1-0.6c-7.4,0-10.5,3.1-10.5,11.5v6h19.1v18.5h-19.1V275h-27.7V192.6z"/>
		<path fill="#FFFFFF" d="M1270,275h-26.3v-14h-0.6c-7,11.3-19.1,16.8-30.8,16.8c-29.4,0-36.9-16.6-36.9-41.5v-62h27.7v56.9
			c0,16.6,4.9,24.8,17.7,24.8c15,0,21.5-8.4,21.5-28.9v-52.9h27.7V275z"/>
		<path fill="#FFFFFF" d="M1287.9,135.7h27.7V275h-27.7V135.7z"/>
		<path fill="#FFFFFF" d="M1391.7,135.7h20.5l54.4,139.3h-20.5l-15.2-41.9H1372l-15.6,41.9h-19.1L1391.7,135.7z M1377.9,217.4h47.2
			l-23.2-64.9h-0.4L1377.9,217.4z"/>
		<path fill="#FFFFFF" d="M1477.1,135.7h18.5V275h-18.5V135.7z"/>
	</g>
</g>
</svg>
